HIERARCHY
ROOT hip
{
  OFFSET 0 0 0
  CHANNELS 6 Xposition Yposition Zposition Zrotation Yrotation Xrotation
  JOINT abdomen
  {
    OFFSET 0 20.6881 -0.73152
    CHANNELS 3 Zrotation Xrotation Yrotation
    JOINT chest
    {
      OFFSET 0 11.7043 -0.48768
      CHANNELS 3 Zrotation Xrotation Yrotation
      JOINT neck
      {
        OFFSET 0 22.1894 -2.19456
        CHANNELS 3 Zrotation Xrotation Yrotation
        JOINT head
        {
          OFFSET -0.24384 7.07133 1.2192
          CHANNELS 3 Zrotation Xrotation Yrotation
          JOINT leftEye
          {
            OFFSET 4.14528 8.04674 8.04672
            CHANNELS 3 Zrotation Xrotation Yrotation
            End Site
            {
              OFFSET 1 0 0
            }
          }
          JOINT rightEye
          {
            OFFSET -3.6576 8.04674 8.04672
            CHANNELS 3 Zrotation Xrotation Yrotation
            End Site
            {
              OFFSET 1 0 0
            }
          }
        }
      }
      JOINT rCollar
      {
        OFFSET -2.68224 19.2634 -4.8768
        CHANNELS 3 Zrotation Xrotation Yrotation
        JOINT rShldr
        {
          OFFSET -8.77824 -1.95073 1.46304
          CHANNELS 3 Zrotation Xrotation Yrotation
          JOINT rForeArm
          {
            OFFSET -28.1742 -1.7115 0.48768
            CHANNELS 3 Zrotation Xrotation Yrotation
            JOINT rHand
            {
              OFFSET -22.5879 0.773209 7.07136
              CHANNELS 3 Zrotation Xrotation Yrotation
              JOINT rThumb1
              {
                OFFSET -1.2192 -0.487915 3.41376
                CHANNELS 3 Zrotation Xrotation Yrotation
                JOINT rThumb2
                {
                  OFFSET -3.37035 -0.52449 3.41376
                  CHANNELS 3 Zrotation Xrotation Yrotation
                  End Site
                  {
                    OFFSET -1.78271 -1.18214 1.43049
                  }
                }
              }
              JOINT rIndex1
              {
                OFFSET -7.75947 0.938293 5.60832
                CHANNELS 3 Zrotation Xrotation Yrotation
                JOINT rIndex2
                {
                  OFFSET -2.54057 -0.884171 1.56538
                  CHANNELS 3 Zrotation Xrotation Yrotation
                  End Site
                  {
                    OFFSET -1.62519 -0.234802 1.16502
                  }
                }
              }
              JOINT rMid1
              {
                OFFSET -8.24714 1.18213 3.41376
                CHANNELS 3 Zrotation Xrotation Yrotation
                JOINT rMid2
                {
                  OFFSET -3.10165 -0.590103 1.0647
                  CHANNELS 3 Zrotation Xrotation Yrotation
                  End Site
                  {
                    OFFSET -2.48547 -0.328903 0.83742
                  }
                }
              }
              JOINT rRing1
              {
                OFFSET -8.82822 0.546677 1.51678
                CHANNELS 3 Zrotation Xrotation Yrotation
                JOINT rRing2
                {
                  OFFSET -2.60934 -0.819778 -0.0198488
                  CHANNELS 3 Zrotation Xrotation Yrotation
                  End Site
                  {
                    OFFSET -2.33842 -0.294052 0.168128
                  }
                }
              }
              JOINT rPinky1
              {
                OFFSET -8.27202 -0.0477905 -0.4584
                CHANNELS 3 Zrotation Xrotation Yrotation
                JOINT rPinky2
                {
                  OFFSET -1.82734 -0.647385 -0.700984
                  CHANNELS 3 Zrotation Xrotation Yrotation
                  End Site
                  {
                    OFFSET -1.69225 -0.51767 -0.607171
                  }
                }
              }
            }
          }
        }
      }
      JOINT lCollar
      {
        OFFSET 2.68224 19.2634 -4.8768
        CHANNELS 3 Zrotation Xrotation Yrotation
        JOINT lShldr
        {
          OFFSET 8.77824 -1.95073 1.46304
          CHANNELS 3 Zrotation Xrotation Yrotation
          JOINT lForeArm
          {
            OFFSET 28.1742 -1.7115 0.48768
            CHANNELS 3 Zrotation Xrotation Yrotation
            JOINT lHand
            {
              OFFSET 22.5879 0.773209 7.07136
              CHANNELS 3 Zrotation Xrotation Yrotation
              JOINT lThumb1
              {
                OFFSET 1.2192 -0.487915 3.41376
                CHANNELS 3 Zrotation Xrotation Yrotation
                JOINT lThumb2
                {
                  OFFSET 3.37035 -0.52449 3.41376
                  CHANNELS 3 Zrotation Xrotation Yrotation
                  End Site
                  {
                    OFFSET 1.78271 -1.18214 1.43049
                  }
                }
              }
              JOINT lIndex1
              {
                OFFSET 7.75947 0.938293 5.60832
                CHANNELS 3 Zrotation Xrotation Yrotation
                JOINT lIndex2
                {
                  OFFSET 2.54057 -0.884171 1.56538
                  CHANNELS 3 Zrotation Xrotation Yrotation
                  End Site
                  {
                    OFFSET 1.62519 -0.234802 1.16502
                  }
                }
              }
              JOINT lMid1
              {
                OFFSET 8.24714 1.18213 3.41376
                CHANNELS 3 Zrotation Xrotation Yrotation
                JOINT lMid2
                {
                  OFFSET 3.10165 -0.590103 1.0647
                  CHANNELS 3 Zrotation Xrotation Yrotation
                  End Site
                  {
                    OFFSET 2.48547 -0.328903 0.83742
                  }
                }
              }
              JOINT lRing1
              {
                OFFSET 8.82822 0.546677 1.51678
                CHANNELS 3 Zrotation Xrotation Yrotation
                JOINT lRing2
                {
                  OFFSET 2.60934 -0.819778 -0.0198488
                  CHANNELS 3 Zrotation Xrotation Yrotation
                  End Site
                  {
                    OFFSET 2.33842 -0.294052 0.168128
                  }
                }
              }
              JOINT lPinky1
              {
                OFFSET 8.27202 -0.0477905 -0.4584
                CHANNELS 3 Zrotation Xrotation Yrotation
                JOINT lPinky2
                {
                  OFFSET 1.82734 -0.647385 -0.700984
                  CHANNELS 3 Zrotation Xrotation Yrotation
                  End Site
                  {
                    OFFSET 1.69225 -0.51767 -0.607171
                  }
                }
              }
            }
          }
        }
      }
    }
  }
  JOINT rButtock
  {
    OFFSET -8.77824 4.35084 1.2192
    CHANNELS 3 Zrotation Xrotation Yrotation
    JOINT rThigh
    {
      OFFSET 0 -1.70687 -2.19456
      CHANNELS 3 Zrotation Xrotation Yrotation
      JOINT rShin
      {
        OFFSET 0 -36.8199 0.73152
        CHANNELS 3 Zrotation Xrotation Yrotation
        JOINT rFoot
        {
          OFFSET 0.73152 -45.1104 -5.12064
          CHANNELS 3 Zrotation Xrotation Yrotation
          End Site
          {
            OFFSET -1.1221 -3.69964 12.103
          }
        }
      }
    }
  }
  JOINT lButtock
  {
    OFFSET 8.77824 4.35084 1.2192
    CHANNELS 3 Zrotation Xrotation Yrotation
    JOINT lThigh
    {
      OFFSET 0 -1.70687 -2.19456
      CHANNELS 3 Zrotation Xrotation Yrotation
      JOINT lShin
      {
        OFFSET 0 -36.8199 0.73152
        CHANNELS 3 Zrotation Xrotation Yrotation
        JOINT lFoot
        {
          OFFSET -0.73152 -45.1104 -5.12064
          CHANNELS 3 Zrotation Xrotation Yrotation
          End Site
          {
            OFFSET 1.1221 -3.69964 12.103
          }
        }
      }
    }
  }
}
MOTION
Frames:	4
Frame Time:	0.03333
0.0 0.0 0.0 0.0 0.0 0.0 0.0 0.0 0.0 0.0 0.0 0.0 0.0 0.0 0.0 0.0 0.0 0.0 0.0 0.0 0.0 0.0 0.0 0.0 0.0 0.0 0.0 0.0 0.0 0.0 0.0 0.0 0.0 0.0 0.0 0.0 0.0 0.0 0.0 0.0 0.0 0.0 0.0 0.0 0.0 0.0 0.0 0.0 0.0 0.0 0.0 0.0 0.0 0.0 0.0 0.0 0.0 0.0 0.0 0.0 0.0 0.0 0.0 0.0 0.0 0.0 0.0 0.0 0.0 0.0 0.0 0.0 0.0 0.0 0.0 0.0 0.0 0.0 0.0 0.0 0.0 0.0 0.0 0.0 0.0 0.0 0.0 0.0 0.0 0.0 0.0 0.0 0.0 0.0 0.0 0.0 0.0 0.0 0.0 0.0 0.0 0.0 0.0 0.0 0.0 0.0 0.0 0.0 0.0 0.0 0.0 0.0 0.0 0.0 0.0 0.0 0.0 0.0 0.0 0.0 0.0 0.0 0.0 0.0 0.0 0.0 0.0 0.0 0.0 0.0 0.0 0.0
-0.4253 71.10459999999999 -0.17279999999999998 -178.552386 -17.441808 178.93307 2.55583 0.769733 87.171771 -9.779266 7.67651 55.176373 12.221281 -15.660786 90.749035 45.351644 -7.051364 62.827737 29.694191 3.695423 13.87681 131.29247 -21.339681 45.197385 75.870267 -36.810108 -8.218906 -76.569715 80.839575 95.352705 -130.250735 -81.822614 22.911617 66.084864 -62.289394 60.575994 -25.788591 -10.823678 9.981449 25.704323 42.650462 -64.43913 164.05034 -0.941236 174.153736 -176.779136 -18.828592 172.442884 57.653721 -34.582277 -170.868644 122.185002 4.920022 -158.645594 51.351208 2.752039 169.987151 46.807502 17.257053 90.339162 -161.409836 51.081079 13.069903 -174.189082 -68.827601 -88.669972 -73.273358 17.089101 -19.412024 -9.297325 17.503423 2.055147 2.492084 75.953221 -164.931475 -0.50185 55.951855 18.810945 110.610176 -52.571006 157.818599 30.868933 24.343937 143.776495 -162.03537 23.683308 9.502451 -16.582508 -43.398249 -130.000479 -50.402728 -45.200616 -122.888833 -152.988891 69.972889 -6.932763 -93.691841 4.755498 50.005856 115.150516 -29.901085 -135.805246 -114.05251 -1.307454 -41.435289 -172.455346 -23.055607 26.183429 -51.767622 10.833013 -106.928619 -14.325664 51.467168 61.38941 -4.932539 0.972953 -76.426079 -68.538993 29.930329 93.786527 -60.218049 3.940681 -88.137903 7.804227 59.443979 175.846617 4.040514 3.071745 145.667021 -41.780651 -57.832323 136.090823
-0.7331 67.26379999999999 -0.889 5.821771 -65.094383 22.505818 -35.05678 -42.271183 156.008005 -26.389829 -4.505296 -175.24568 7.608781 24.366602 131.620465 -11.611289 17.153264 -154.518194 -30.353282 -2.641482 9.716329 28.391074 -8.289452 -31.971361 -5.573185 -1.569379 0.457575 4.105941 44.903807 12.626699 -173.553413 56.520385 82.789087 171.047208 1.578343 131.099554 -13.213058 7.04189 6.985817 19.212307 -36.041512 18.926146 41.944987 -79.804531 36.112916 -133.870635 0.839526 150.608776 137.660043 -56.039126 107.522493 -67.166523 40.799668 47.180669 -172.737614 3.197694 -173.700949 178.799783 45.058635 177.915538 -13.512905 -52.399972 20.955732 89.394937 75.089988 -54.30761 -6.646202 0.59666 -4.827975 83.31771 75.443261 -93.128082 92.450234 -4.179614 21.605273 -35.324273 -46.702627 -18.732339 176.910853 4.476736 -91.947357 20.64076 2.444256 26.108861 137.694037 26.494368 -73.737566 142.990811 -20.244618 -106.939977 63.976551 35.084333 -45.054391 141.472202 -56.797898 -118.306802 -95.629441 -39.929577 -84.823732 -126.552612 -28.788102 -174.288788 119.316673 75.425907 174.531633 61.181819 10.949727 2.072894 71.54587 54.374324 105.176254 -162.357548 41.501904 -11.635286 -1.586269 52.702223 104.544569 -0.221519 30.808452 -97.810672 6.588571 -23.928416 -0.0 2.493112 -23.461428 -35.533047 -50.172734 34.34904 170.497003 -133.274772 -54.486708 124.162447
-2.3182 70.34660000000001 -1.4236 -10.619216 -63.233925 16.235421 -3.819353 -3.227447 -0.374469 10.213407 -10.658024 -11.5797 -26.435219 9.192663 -85.968149 24.857647 33.691003 82.476672 -169.508316 2.775723 29.564076 37.551984 15.732555 44.234161 -17.467694 18.842693 25.884855 -162.150135 -2.763301 164.725638 174.998652 45.036714 -117.002359 0.521732 -3.631586 -14.97269 27.118267 -40.717289 -28.312875 -125.69238 -43.942262 62.168034 12.664412 -75.069222 4.404905 3.536378 75.189566 -0.378735 10.732326 -24.347089 -1.280488 163.025267 15.031493 127.438563 94.118861 -81.189454 102.810283 -8.319713 48.185053 -25.223856 -170.11137 38.98066 143.626836 -41.390484 -18.821984 105.6115 -7.451542 19.576453 19.446118 -93.472797 -74.846389 -83.954206 -167.361669 -55.429427 -34.541408 -160.352562 -10.727211 -132.00991 142.827068 39.166576 -30.943737 -61.383673 -60.412723 -109.110936 -10.7119 -44.413512 -18.085128 128.437705 -69.99059 -89.074666 130.280382 7.915463 -119.013306 -46.022271 34.038381 -9.751043 20.535344 12.643825 -86.853497 88.468148 58.038421 95.665993 -23.99476 18.583542 11.293798 -1.091849 37.102635 -136.94863 101.900483 21.562452 61.071737 -133.963941 23.478739 180.0 -14.455968 -51.088444 -94.173498 -3.994377 -4.402014 -109.680133 -99.323499 69.680564 -49.378124 155.120016 51.429548 -180.0 45.540539 -42.069367 -173.051005 138.631004 0.357241 -61.247575
